<?xml version="1.0" standalone="no"?>
<!DOCTYPE svg PUBLIC "-//W3C//DTD SVG 20010904//EN"
 "http://www.w3.org/TR/2001/REC-SVG-20010904/DTD/svg10.dtd">
<svg version="1.0" xmlns="http://www.w3.org/2000/svg"
 width="1024.000000pt" height="1024.000000pt" viewBox="0 0 1024.000000 1024.000000"
 preserveAspectRatio="xMidYMid meet">
<metadata>
Created by potrace 1.16, written by Peter Selinger 2001-2019
</metadata>
<g transform="translate(0.000000,1024.000000) scale(0.100000,-0.100000)"
fill="#000000" stroke="none">
<path d="M3990 8935 l0 -106 -50 -49 c-48 -47 -54 -50 -103 -50 -29 0 -96 -3
-149 -7 l-98 -6 0 -151 c0 -83 -4 -156 -8 -162 -4 -6 -14 -13 -23 -16 -9 -4
-19 -20 -22 -37 -4 -17 -13 -31 -20 -31 -8 0 -17 -14 -21 -32 -3 -17 -17 -46
-31 -64 -14 -18 -25 -37 -25 -43 0 -6 -4 -11 -10 -11 -5 0 -10 -7 -10 -15 0
-8 -6 -33 -12 -55 l-13 -40 -867 0 -868 0 0 -25 0 -25 845 0 c744 0 845 2 845
15 0 8 5 15 10 15 12 0 12 -6 0 -50 l-10 -35 -845 3 c-758 2 -845 1 -845 -13
0 -14 77 -16 733 -15 1048 1 937 3 937 -19 0 -16 -8 -20 -42 -23 l-43 -3 -1
-49 c-1 -69 -22 -72 -26 -5 -3 51 -4 54 -35 60 -18 3 -35 4 -38 1 -3 -3 -5
-49 -5 -103 l0 -98 -33 -25 c-19 -15 -41 -26 -50 -26 -35 0 -47 -12 -47 -50 0
-24 -7 -43 -20 -55 -11 -10 -20 -24 -20 -32 0 -7 -7 -16 -15 -19 -8 -4 -15
-16 -15 -28 -1 -20 -2 -20 -14 -3 -12 16 -55 17 -640 17 l-626 0 0 -60 0 -60
611 0 610 0 -3 -25 -3 -26 -607 1 -608 0 0 -25 0 -25 598 -2 c523 -3 597 -5
597 -18 0 -13 -74 -15 -597 -18 l-598 -2 0 -35 0 -35 585 0 585 0 0 -32 0 -33
-585 3 -585 2 0 -144 0 -145 508 -6 c628 -7 662 -8 663 -20 0 -5 3 -29 5 -52
5 -45 -13 -62 -23 -23 -8 31 -23 24 -23 -12 0 -44 -13 -26 -14 20 -1 26 -5 37
-16 37 -11 0 -17 -15 -21 -55 l-5 -55 -5 53 c-6 76 -23 69 -27 -11 -2 -48 -7
-67 -15 -64 -8 2 -12 30 -13 78 -2 77 -14 99 -48 86 -13 -5 -16 -24 -16 -114
-1 -109 -7 -133 -41 -145 -9 -4 -19 -20 -22 -37 l-6 -31 -441 0 c-384 0 -440
-2 -440 -15 0 -13 54 -15 425 -15 333 0 425 -3 425 -12 0 -10 -90 -12 -425
-10 -421 3 -425 2 -425 -18 0 -20 5 -20 420 -20 l420 0 0 -24 c0 -13 -3 -38
-6 -55 l-6 -31 -414 0 -414 0 0 -75 0 -75 414 0 413 0 7 -41 c4 -22 4 -44 1
-50 -4 -5 -173 -9 -421 -9 -407 0 -414 0 -414 -20 0 -19 8 -20 428 -22 l427
-3 3 -27 c2 -16 8 -28 14 -28 5 0 7 -7 4 -15 -3 -9 1 -18 9 -21 8 -4 15 -15
15 -25 0 -10 5 -19 10 -19 6 0 10 -5 10 -11 0 -6 9 -22 20 -36 11 -14 20 -41
20 -59 0 -29 3 -34 24 -34 14 0 28 -5 31 -10 6 -10 8 -560 2 -566 -5 -6 -278
-6 -284 -1 -3 3 -5 97 -4 208 2 177 0 203 -15 220 -9 11 -23 19 -29 19 -7 0
-18 7 -25 15 -7 8 -16 12 -22 9 -5 -3 -15 0 -23 6 -8 7 -15 9 -15 4 0 -5 0
-120 0 -256 1 -242 0 -247 -20 -253 -12 -4 -24 -5 -26 -2 -3 2 -6 125 -7 273
l-2 268 -27 7 -28 7 -2 -286 c-3 -247 -5 -287 -18 -287 -13 0 -15 40 -18 291
-2 244 -5 294 -17 304 -13 11 -15 -25 -15 -305 0 -296 -1 -316 -17 -313 -17 3
-18 27 -21 316 -1 196 -6 312 -12 312 -6 0 -10 -120 -10 -330 l0 -330 -25 0
c-14 0 -25 -4 -25 -10 0 -5 -9 -10 -21 -10 -11 0 -27 -7 -35 -15 -9 -8 -25
-15 -36 -15 -14 0 -18 -5 -14 -15 4 -12 0 -14 -19 -9 -15 4 -25 2 -25 -5 0 -6
-5 -11 -10 -11 -7 0 -10 135 -8 415 2 327 0 415 -9 415 -18 0 -19 -840 -1
-858 9 -9 5 -9 -15 0 l-27 13 -2 425 -3 425 -3 -442 c-2 -385 -4 -443 -17
-443 -8 0 -20 -9 -27 -20 -7 -11 -18 -20 -25 -20 -7 0 -13 -7 -13 -15 0 -8 7
-15 15 -15 8 0 15 7 15 15 0 8 9 15 20 15 11 0 25 9 32 19 6 10 18 17 25 14
20 -8 63 17 63 36 0 14 2 14 10 1 8 -13 13 -13 37 2 16 9 71 26 123 38 52 11
113 25 135 30 97 22 148 29 270 35 324 17 566 -48 689 -185 38 -42 106 -173
106 -204 0 -21 15 -48 65 -116 23 -30 44 -60 48 -67 9 -14 -47 -156 -68 -173
-10 -9 -22 -7 -47 6 -37 19 -138 119 -138 136 0 6 -6 19 -14 27 -8 9 -29 43
-46 76 -42 77 -50 86 -50 53 0 -15 5 -30 11 -34 6 -3 9 -17 6 -31 -2 -14 2
-31 11 -39 13 -14 13 -17 1 -25 -11 -7 -12 -11 -1 -17 7 -5 24 -30 36 -55 34
-67 94 -136 138 -158 27 -14 38 -26 38 -42 0 -22 -39 -137 -59 -175 -6 -12
-11 -33 -11 -48 0 -22 -4 -25 -21 -21 -12 3 -22 0 -26 -9 -3 -8 -16 -14 -30
-14 -42 0 -20 -25 26 -28 39 -3 42 -5 39 -30 l-3 -27 -148 -3 c-112 -2 -147
-6 -144 -15 3 -8 42 -12 136 -14 73 -1 135 -4 137 -6 3 -3 2 -17 -2 -31 l-6
-27 -173 1 c-147 1 -177 -1 -199 -15 -14 -10 -26 -21 -26 -26 0 -5 86 -9 191
-9 l190 0 -3 -31 -3 -31 -230 1 c-245 2 -256 0 -293 -51 -12 -17 -38 -18 -363
-18 -276 0 -350 -3 -346 -12 3 -10 133 -13 604 -13 331 0 605 -3 609 -8 11
-11 4 -119 -11 -163 l-13 -39 -676 -3 -676 -2 0 -35 0 -35 636 0 c594 0 638 1
651 18 13 15 14 13 8 -21 -3 -21 -14 -53 -24 -70 -10 -18 -21 -44 -25 -59 -3
-16 -11 -28 -16 -28 -6 0 -10 -13 -10 -28 0 -15 -4 -32 -9 -37 -5 -6 -11 -23
-13 -38 l-3 -28 -597 1 c-594 0 -598 0 -598 -20 0 -20 4 -20 590 -20 577 0
590 0 590 -19 0 -11 -4 -22 -10 -26 -5 -3 -270 -5 -590 -5 -575 0 -580 0 -580
-20 0 -20 5 -20 576 -20 l575 0 -3 -40 -3 -41 -572 1 -573 0 0 -180 0 -180
573 -2 572 -3 3 -23 3 -22 -575 0 -576 0 0 -40 0 -40 584 0 c575 0 585 0 591
-20 3 -11 3 -24 0 -30 -4 -7 -208 -10 -591 -10 -579 0 -584 0 -584 -20 0 -20
4 -20 595 -18 558 3 596 2 601 -14 3 -10 2 -22 -1 -28 -4 -7 -212 -10 -601
-10 -587 0 -594 0 -594 -20 0 -20 8 -20 608 -22 l607 -3 3 -22 3 -23 -610 0
c-606 0 -611 0 -611 -20 0 -20 5 -20 617 -20 545 1 618 -1 625 -15 5 -8 6 -20
3 -25 -4 -6 -227 -10 -626 -10 -544 0 -619 -2 -619 -15 0 -13 77 -15 630 -15
623 0 630 0 630 -20 0 -20 -7 -20 -630 -20 -567 0 -630 -2 -630 -16 0 -14 63
-15 643 -13 l642 3 0 -25 c0 -17 -5 -23 -17 -21 -12 2 -18 -4 -18 -16 0 -11
-9 -22 -20 -25 -17 -4 -20 0 -20 29 0 32 -2 34 -36 34 l-35 0 2 -77 c2 -67 0
-78 -19 -94 -12 -9 -22 -22 -22 -28 0 -6 -5 -11 -11 -11 -5 0 -7 5 -4 10 4 7
-178 10 -539 10 l-546 0 0 -55 0 -55 528 0 c467 1 527 -1 530 -15 3 -13 -55
-15 -527 -15 l-531 0 0 -75 0 -75 529 0 529 0 -5 -40 -6 -40 38 0 c29 0 36 3
32 15 -7 18 6 27 26 19 9 -3 13 -12 10 -20 -4 -12 107 -14 780 -14 513 0 788
3 792 10 8 13 165 13 165 0 0 -11 73 -14 84 -3 11 12 1424 15 1431 3 4 -6 79
-10 200 -10 176 0 194 2 198 18 4 16 5 16 6 0 1 -17 58 -18 1056 -18 l1055 0
0 60 0 60 -1016 0 c-905 0 -1015 2 -1012 15 3 14 116 15 1016 15 896 0 1012 2
1012 15 0 13 -116 15 -1005 15 l-1005 0 0 25 0 25 1005 0 1005 0 0 35 0 35
-995 0 -995 0 0 24 c0 13 3 36 6 52 l5 29 990 -3 989 -2 0 50 0 50 -979 0
c-769 0 -981 -3 -987 -12 -10 -16 -22 22 -23 74 -1 36 -1 36 39 35 31 -2 40
-6 40 -19 0 -20 30 -25 31 -5 0 6 1 32 2 56 2 35 8 48 32 67 l30 23 -3 -84 -4
-84 34 -6 c18 -3 62 -5 98 -3 l65 3 5 192 c5 186 6 192 29 217 14 14 30 26 38
26 8 0 13 12 13 30 0 20 5 30 15 30 8 0 15 9 15 20 0 12 11 32 24 45 13 13 21
26 19 29 -3 3 2 8 11 12 9 3 16 15 16 25 0 10 4 19 9 19 5 0 12 24 16 53 4 28
11 57 15 62 4 6 10 22 14 38 3 15 11 27 16 27 6 0 10 7 10 16 0 8 7 36 15 62
l16 47 664 -3 c448 -2 665 1 665 8 0 7 -218 10 -660 10 -622 0 -660 1 -660 18
0 9 3 26 6 37 5 20 12 20 660 17 440 -2 654 1 654 8 0 7 -213 10 -646 10
l-645 0 3 38 3 37 643 3 c560 2 642 4 642 17 0 13 -81 15 -632 17 l-633 3 -3
30 c-2 17 1 41 5 53 l9 23 627 -1 627 0 0 50 0 50 -626 0 -625 0 7 98 c3 53 8
108 10 122 1 14 3 32 3 40 1 13 2 13 12 0 7 -11 9 39 6 173 -4 158 -2 190 10
194 12 5 13 20 8 79 -6 63 -5 75 9 80 11 4 14 13 10 30 -9 36 3 74 21 68 18
-7 20 7 4 23 -14 14 -2 53 16 53 8 0 11 7 8 20 -3 11 6 43 22 73 61 118 67
126 90 107 11 -9 15 -33 15 -101 l0 -89 -50 0 c-27 0 -50 -4 -50 -10 0 -11 51
-13 98 -4 l31 6 4 82 c2 57 3 49 3 -29 l-1 -110 -67 -3 c-98 -4 -84 -22 17
-22 l85 0 0 110 c0 69 4 110 10 110 7 0 10 -50 8 -142 l-3 -143 -92 -3 c-75
-2 -93 -6 -93 -18 0 -13 16 -15 100 -13 56 1 104 -1 107 -5 4 -3 12 -6 20 -6
10 0 13 32 13 153 l0 153 100 0 100 0 0 -288 c0 -158 -4 -288 -8 -288 -5 0
-15 12 -22 26 -10 18 -20 24 -35 20 -11 -3 -100 -6 -197 -6 l-178 0 0 -145 0
-145 550 0 550 0 0 89 c0 70 -3 90 -15 95 -13 5 -15 82 -15 610 0 524 2 607
15 620 22 21 18 45 -10 68 l-25 19 -2 1012 -3 1012 -984 2 c-541 2 -986 5
-989 8 -7 6 -7 84 0 90 3 3 460 5 1017 5 1006 0 1011 0 1011 20 0 20 -5 20
-1024 20 -1112 0 -1036 -4 -1036 51 0 11 -8 23 -17 26 -41 15 -42 28 -43 325
0 161 -4 289 -9 292 -5 4 -16 3 -25 0 -14 -5 -16 -38 -16 -275 0 -235 -2 -269
-15 -269 -14 0 -16 32 -15 248 0 136 0 253 0 260 0 6 -4 12 -10 12 -6 0 -10
-90 -10 -251 0 -196 -3 -250 -12 -246 -10 3 -13 62 -15 243 -1 131 -4 240 -7
241 -3 1 -13 0 -21 -3 -13 -5 -15 -40 -15 -230 0 -192 -2 -224 -15 -224 -12 0
-15 16 -15 85 l0 85 -95 0 -95 0 0 30 c0 22 -6 33 -22 39 -21 8 -22 13 -19 98
2 70 -1 93 -13 105 -16 16 -25 145 -12 167 4 6 20 11 36 11 30 0 42 18 36 55
-5 29 13 62 38 69 11 3 571 6 1244 6 l1222 0 0 60 0 60 -1195 0 c-1188 0
-1195 0 -1195 20 0 20 7 20 1195 20 l1195 0 0 50 0 50 -1172 2 -1173 3 0 23 0
22 1173 0 1172 0 0 30 0 30 -1160 0 c-1261 0 -1181 -4 -1167 53 l6 22 1161 -3
1160 -2 0 115 0 115 -1160 -2 c-1236 -3 -1170 -6 -1170 43 0 19 23 19 1165 19
1160 0 1165 0 1165 20 0 20 -4 20 -1170 18 -1034 -3 -1170 -1 -1170 12 0 13
135 15 1170 12 l1170 -2 0 130 0 130 -1200 0 -1200 0 0 -102 c0 -56 -3 -98 -6
-95 -4 3 -6 49 -5 102 2 90 1 95 -18 95 -20 0 -21 -6 -21 -88 l0 -87 -40 0
-40 0 0 87 0 88 -41 0 -41 0 4 -110 c2 -83 0 -110 -9 -110 -10 0 -13 29 -13
110 0 103 -1 110 -20 110 -19 0 -20 -7 -20 -130 0 -113 -2 -130 -17 -139 -17
-8 -18 0 -15 130 l3 139 -35 0 -36 0 0 -163 c0 -153 -5 -187 -29 -187 -4 0 -5
79 -3 175 l3 175 -26 0 -25 0 0 -200 c0 -180 -2 -200 -17 -209 -17 -8 -18 3
-15 200 3 206 3 209 -18 209 -20 0 -21 -3 -20 -221 1 -203 0 -222 -17 -234
-17 -12 -18 -3 -15 221 3 233 3 234 -18 234 -21 0 -21 -1 -18 -245 3 -242 2
-255 -28 -255 -2 0 -4 113 -4 250 0 245 0 250 -20 250 -21 0 -21 -4 -19 -267
0 -148 -2 -268 -6 -268 -4 0 -6 120 -6 268 2 237 0 267 -14 267 -14 0 -15 -31
-15 -277 1 -245 -1 -278 -14 -281 -14 -3 -16 28 -16 277 l0 281 -25 0 -25 0
-2 -302 c-2 -230 -6 -302 -15 -306 -10 -3 -13 62 -13 302 0 265 -2 306 -15
306 -13 0 -15 -42 -15 -315 0 -203 -4 -315 -10 -315 -6 0 -10 112 -10 315 0
308 0 315 -20 315 -19 0 -20 -8 -22 -337 -2 -258 -6 -337 -15 -341 -10 -3 -13
69 -13 337 l0 341 -25 0 -26 0 1 -356 c1 -196 -1 -358 -4 -362 -3 -3 -6 157
-6 356 0 319 -2 362 -15 362 -14 0 -15 -43 -13 -370 2 -291 0 -370 -9 -370
-10 0 -13 81 -13 370 0 240 -4 370 -10 370 -6 0 -10 -28 -10 -64 0 -48 -4 -65
-15 -70 -8 -3 -154 -6 -323 -6 -289 -1 -307 0 -311 17 -1 10 -10 26 -19 36 -9
11 -15 32 -14 53 2 18 -2 34 -8 34 -5 0 -10 -9 -10 -20 0 -11 -4 -20 -10 -20
-5 0 -10 9 -10 20 0 11 -7 20 -15 20 -8 0 -15 -4 -15 -10 0 -5 -13 -10 -30
-10 -16 0 -30 5 -30 10 0 6 -11 10 -25 10 -18 0 -25 -5 -25 -20 0 -11 -4 -20
-10 -20 -5 0 -10 9 -10 20 0 15 -7 20 -25 20 -22 0 -25 -4 -25 -40 0 -22 -4
-40 -10 -40 -5 0 -10 18 -10 40 l0 40 -50 0 -49 0 -4 -77 -3 -78 -2 78 -2 77
-35 0 -35 0 0 -105z m1028 -311 c1 -142 5 -266 10 -274 4 -8 9 109 12 260 l5
275 25 0 25 0 3 -318 c2 -339 1 -348 -43 -280 -11 18 -30 37 -42 44 -23 12
-23 13 -23 287 0 214 3 273 13 270 9 -4 13 -67 15 -264z m-662 220 c7 -41 -2
-163 -17 -214 -15 -50 -36 -102 -85 -205 -40 -85 -48 -94 -144 -175 -56 -46
-111 -97 -122 -112 -23 -32 -92 -82 -128 -92 -119 -34 -320 -102 -340 -116
-38 -26 -60 -31 -60 -16 0 8 30 74 68 148 73 144 169 286 242 358 26 25 74 78
109 118 72 84 176 173 316 271 119 83 151 90 161 35z m554 -235 c0 -121 -3
-218 -7 -216 -8 5 -6 437 2 437 3 0 5 -99 5 -221z m-63 -11 c-2 -135 -5 -182
-14 -185 -10 -4 -13 35 -13 170 0 97 3 182 6 191 16 43 23 -11 21 -176z m1260
120 c6 -7 15 -34 22 -60 33 -136 -12 -345 -121 -560 -88 -173 -417 -491 -614
-594 -72 -37 -70 -49 5 -33 28 6 115 9 193 7 131 -3 148 -5 200 -30 108 -52
138 -75 138 -108 0 -69 -35 -114 -161 -207 -66 -48 -138 -98 -159 -109 -46
-25 -72 -45 -66 -51 2 -2 46 9 97 26 283 90 332 101 464 101 133 0 273 -48
312 -106 34 -53 -18 -159 -146 -296 -39 -42 -95 -92 -124 -111 -81 -54 -345
-137 -485 -153 -83 -9 -90 -20 -48 -75 35 -46 135 -116 319 -224 126 -73 140
-85 174 -143 40 -67 19 -115 -67 -154 -92 -43 -279 -63 -354 -38 -144 48 -219
70 -236 70 -11 0 -25 -10 -31 -22 -20 -39 -119 -141 -173 -179 -55 -39 -217
-123 -306 -159 -30 -12 -70 -29 -87 -37 -91 -39 -310 -99 -453 -122 -41 -7
-93 -17 -115 -22 -66 -17 -369 -22 -500 -10 -239 24 -293 34 -420 78 -101 35
-145 55 -288 132 -250 133 -382 288 -448 526 -42 154 -10 304 92 420 53 60
132 84 378 115 93 11 115 24 139 80 52 125 22 300 -94 531 -13 25 -46 71 -73
102 -28 30 -51 58 -51 61 0 21 90 132 167 208 216 213 458 342 712 379 l95 13
60 64 c205 215 512 311 754 236 47 -15 93 -35 104 -46 19 -19 18 -20 -56 -100
-104 -113 -168 -238 -121 -238 8 0 43 25 77 56 90 80 269 195 369 236 47 20
113 56 145 80 63 48 209 132 336 193 42 21 96 54 120 74 24 20 75 58 114 84
38 26 94 66 124 87 59 43 72 47 87 28z m-1399 -46 c2 -7 -5 -12 -17 -12 -11 0
-23 -4 -26 -10 -3 -6 -48 -10 -101 -10 -84 0 -94 2 -94 18 0 10 2 21 4 23 3 2
55 4 117 3 77 0 114 -4 117 -12z m-118 -92 c0 -5 -6 -10 -14 -10 -7 0 -18 -6
-24 -13 -7 -8 -28 -11 -56 -9 -37 3 -46 8 -46 23 0 17 8 19 70 19 40 0 70 -4
70 -10z m-83 -68 c6 -4 13 -27 14 -52 3 -36 0 -45 -14 -48 -13 -3 -17 4 -17
32 0 36 -15 47 -36 26 -14 -14 -38 14 -30 35 6 16 61 21 83 7z m-77 -82 c8
-27 7 -31 -6 -26 -9 3 -23 6 -32 6 -16 1 -15 2 1 14 9 7 17 21 17 31 0 25 9
14 20 -25z m-1125 -580 c7 -11 -11 -40 -25 -40 -4 0 -5 11 -2 25 5 26 16 32
27 15z m2665 -240 c0 -68 -1 -70 -20 -60 -17 9 -20 21 -20 70 0 53 2 60 20 60
18 0 20 -7 20 -70z m-60 10 c0 -22 -4 -40 -10 -40 -5 0 -10 18 -10 40 0 22 5
40 10 40 6 0 10 -18 10 -40z m-75 1 c3 -5 1 -12 -5 -16 -5 -3 -10 1 -10 9 0
18 6 21 15 7z m285 -308 c-8 -3 -21 -10 -27 -16 -9 -7 -13 -5 -13 7 0 11 8 16
28 15 15 0 21 -3 12 -6z m-50 -59 c0 -8 -4 -12 -10 -9 -5 3 -10 10 -10 16 0 5
5 9 10 9 6 0 10 -7 10 -16z m-3044 -51 c7 -10 14 -28 14 -40 0 -15 6 -23 18
-23 25 0 89 -61 97 -93 10 -40 -2 -76 -37 -109 -33 -31 -69 -36 -88 -13 -26
32 -32 14 -27 -87 3 -57 9 -118 12 -137 8 -37 -3 -51 -42 -51 -32 0 -36 39
-30 258 8 258 36 357 83 295z m5419 -354 c4 -6 0 -16 -9 -22 -15 -11 -17 -99
-19 -949 -1 -516 -5 -937 -10 -935 -4 1 -7 424 -7 940 0 787 -2 937 -14 937
-7 0 -19 -6 -25 -13 -8 -10 -12 -274 -13 -933 -3 -739 -6 -919 -16 -919 -10 0
-13 176 -12 908 0 795 -2 908 -15 913 -8 3 -21 -1 -30 -9 -13 -14 -15 -121
-15 -900 0 -486 -3 -886 -6 -890 -3 -3 -12 -3 -20 0 -12 4 -14 136 -14 881 0
481 -2 877 -5 880 -3 3 -11 0 -17 -6 -7 -7 -18 -12 -25 -12 -8 0 -24 -11 -37
-25 -13 -14 -28 -25 -33 -25 -8 0 -64 -27 -132 -65 -13 -7 -28 -19 -32 -27 -5
-7 -9 -370 -9 -805 0 -698 -2 -793 -15 -793 -13 0 -15 94 -15 790 0 501 -4
790 -10 790 -28 0 -30 -55 -30 -819 0 -519 -3 -782 -10 -786 -13 -8 -18 8 -22
70 l-3 50 -65 5 -65 5 -3 710 c-1 399 -6 713 -11 718 -5 5 -18 0 -30 -12 -21
-21 -21 -23 -21 -716 0 -611 -2 -695 -15 -695 -13 0 -15 83 -15 685 0 377 -4
685 -8 685 -31 0 -32 -26 -32 -713 l0 -689 -66 -71 c-36 -40 -79 -99 -95 -133
-36 -73 -63 -189 -49 -214 8 -14 -4 -26 -68 -68 -94 -62 -222 -185 -328 -315
-102 -127 -146 -197 -206 -331 -27 -60 -58 -116 -69 -124 -14 -10 -19 -21 -15
-36 8 -31 -30 -90 -51 -82 -27 11 -119 -24 -161 -59 -21 -18 -46 -49 -57 -69
-11 -20 -25 -36 -32 -36 -16 0 -17 -52 -1 -68 22 -22 -10 -42 -66 -42 -73 0
-138 -25 -213 -81 -35 -27 -66 -49 -68 -49 -3 0 -14 22 -25 48 -45 104 -169
188 -313 212 -87 15 -140 5 -172 -30 -10 -11 -23 -20 -29 -20 -11 0 -86 101
-86 115 0 4 -9 20 -21 36 -25 36 -19 56 18 65 50 12 87 36 150 97 56 54 167
138 232 175 73 42 93 52 109 52 10 0 27 7 38 15 15 11 52 14 164 15 102 0 141
3 133 11 -5 5 -24 11 -42 11 -31 1 -47 28 -16 28 25 0 17 24 -21 59 -19 19
-49 61 -66 94 -16 33 -36 67 -44 74 -8 8 -14 17 -14 21 0 4 -11 20 -25 36 -14
16 -25 32 -25 36 0 4 -22 37 -50 74 -27 37 -50 69 -50 71 0 9 -64 95 -71 95
-8 0 -79 -134 -79 -150 0 -17 -86 -148 -128 -195 -65 -72 -125 -111 -229 -149
-56 -21 -112 -36 -125 -34 -22 3 -23 7 -26 100 l-3 97 58 37 c78 49 201 175
244 248 19 33 44 76 57 95 12 20 31 53 43 75 39 72 150 172 288 259 104 65
143 82 236 102 44 10 96 21 115 25 293 67 589 85 775 49 89 -17 139 -31 175
-47 19 -8 51 -17 70 -19 19 -2 37 -9 41 -14 3 -6 10 -11 15 -12 5 -1 9 -10 8
-19 0 -13 7 -18 26 -18 14 0 30 4 35 9 6 6 34 11 64 13 71 4 83 28 14 28 -39
1 -54 6 -80 30 l-33 30 0 595 c0 401 -3 594 -10 590 -7 -4 -10 -202 -10 -578
0 -315 0 -578 0 -584 0 -7 -4 -13 -10 -13 -7 0 -10 202 -10 585 0 383 -3 585
-10 585 -7 0 -10 -199 -10 -576 0 -543 -1 -575 -17 -572 -17 3 -18 39 -20 563
-2 389 -6 560 -13 560 -8 0 -11 -167 -13 -545 -2 -510 -3 -545 -19 -548 -17
-3 -18 28 -20 535 l-3 538 -5 -530 c-4 -415 -8 -530 -17 -529 -7 1 -17 2 -23
3 -6 0 -11 186 -12 518 -3 483 -4 518 -20 521 -17 3 -18 -28 -20 -505 -3 -500
-3 -508 -23 -508 -20 0 -20 7 -20 493 0 337 -3 492 -10 492 -34 0 -35 -21 -35
-492 0 -366 -3 -470 -12 -473 -7 -2 -28 -1 -46 3 l-33 7 -2 345 -2 345 -337 3
c-284 2 -338 5 -338 16 0 8 -26 41 -57 73 l-58 58 3 62 3 61 32 -3 c18 -1 54
-8 80 -14 27 -6 53 -9 58 -6 5 4 9 64 9 136 0 79 4 129 10 129 6 0 10 -50 10
-130 0 -145 1 -148 65 -136 l35 7 0 179 c0 98 3 186 6 195 4 9 17 21 30 26 16
5 24 17 24 32 0 13 4 27 9 33 4 5 16 30 26 57 l18 47 953 0 c664 0 955 -3 959
-11z m52 -1466 c-1 -274 -2 -52 -2 492 0 545 1 769 2 498 2 -270 2 -716 0
-990z m-2269 1010 l-2 -88 -5 80 c-3 44 -5 83 -3 88 9 21 12 -2 10 -80z m-188
-33 c0 -18 6 -33 15 -36 17 -7 22 -104 5 -104 -5 0 -10 20 -10 44 0 30 -5 46
-15 50 -17 6 -21 76 -5 76 6 0 10 -14 10 -30z m-67 -16 c-4 -12 -8 -13 -14 -3
-9 15 -2 32 11 24 5 -3 6 -13 3 -21z m-23 -40 c0 -8 -5 -12 -10 -9 -6 4 -8 11
-5 16 9 14 15 11 15 -7z m55 -12 c0 -31 -19 -28 -23 4 -3 18 0 25 10 22 7 -3
13 -14 13 -26z m885 -298 c0 -19 -98 -110 -146 -136 -30 -16 -60 -18 -266 -18
-163 0 -229 -3 -221 -11 7 -7 79 -9 210 -7 188 3 199 2 189 -14 -6 -10 -18
-18 -26 -18 -36 0 -42 -36 -40 -240 0 -109 -3 -201 -7 -203 -4 -3 -30 -7 -58
-8 l-50 -4 -1 177 c-2 175 -8 217 -26 184 -5 -9 -15 -16 -23 -16 -29 0 -36
-40 -34 -197 1 -137 -1 -157 -16 -166 -10 -5 -21 -5 -26 0 -4 4 -10 73 -11
152 -3 144 -7 160 -38 141 -12 -7 -16 -41 -20 -160 -6 -189 -23 -200 -30 -18
-3 78 -9 133 -15 135 -22 7 -36 -67 -34 -179 2 -108 1 -113 -20 -116 -20 -3
-21 0 -21 107 0 62 -4 112 -10 116 -6 4 -10 56 -10 124 0 105 2 119 18 123 16
4 17 -4 12 -105 -3 -60 -2 -111 1 -113 4 -2 12 3 19 11 12 15 18 205 6 223 -3
5 6 22 21 36 25 25 27 35 31 122 l4 94 319 0 c284 0 319 -2 319 -16z m-832
-416 l-2 -113 -5 105 c-4 58 -5 108 -3 113 9 22 12 -4 10 -105z m-478 32 c0
-61 -8 -72 -30 -45 -7 8 -27 15 -45 15 -31 0 -33 2 -26 28 7 23 13 27 39 24
26 -2 32 2 32 18 0 11 7 20 15 20 12 0 15 -13 15 -60z m420 -49 c0 -63 -4
-112 -10 -116 -6 -4 -10 -57 -10 -126 0 -92 -3 -120 -12 -117 -10 4 -14 59
-15 224 -2 120 -1 225 2 232 2 6 14 12 25 12 19 0 20 -6 20 -109z m-180 -29
c0 -65 4 -122 9 -127 13 -13 17 -270 5 -270 -5 0 -10 55 -12 123 -4 167 -22
159 -22 -10 -1 -132 -1 -133 -27 -152 -18 -14 -28 -16 -31 -8 -2 7 -8 12 -13
12 -6 0 -8 -4 -5 -9 3 -5 -6 -17 -19 -27 -14 -10 -25 -25 -25 -32 0 -8 -8 -10
-24 -6 -19 4 -25 1 -34 -23 -5 -15 -24 -37 -42 -47 -18 -10 -30 -14 -26 -7 4
6 2 11 -3 11 -6 0 -11 -11 -11 -25 0 -15 -15 -40 -40 -65 -22 -23 -38 -45 -35
-50 7 -11 -32 -100 -43 -100 -4 0 -13 -12 -19 -28 -7 -15 -26 -33 -44 -39 -19
-7 -28 -16 -24 -23 11 -17 -16 -60 -37 -60 -11 0 -18 -7 -18 -20 0 -23 -32
-43 -54 -34 -12 4 -16 0 -16 -15 0 -12 -4 -21 -10 -21 -10 0 -14 157 -5 182 4
9 17 13 38 10 56 -6 72 15 73 102 1 42 5 75 10 74 5 -2 9 -16 9 -33 0 -48 20
-40 23 10 2 32 7 45 18 45 8 0 12 5 9 10 -3 6 1 10 9 10 9 0 18 13 22 35 3 19
12 39 20 46 8 6 14 20 14 30 0 10 5 21 10 24 6 3 10 15 10 26 0 10 7 19 15 19
11 0 14 7 9 24 -3 14 -1 27 7 32 17 10 111 5 124 -7 5 -5 17 -9 27 -9 15 0 18
8 18 49 0 28 5 53 10 56 6 4 10 -15 10 -49 0 -56 0 -56 30 -56 l30 0 0 106 c0
58 4 113 10 123 7 14 3 23 -17 40 -18 17 -22 26 -14 34 7 7 11 55 11 124 l0
113 45 0 45 0 0 -118z m-3068 51 l38 -37 0 -118 c0 -107 -8 -143 -24 -103 -3
8 -12 15 -19 15 -25 0 -36 45 -39 163 -2 64 -1 117 2 117 2 0 21 -17 42 -37z
m2548 -67 c0 -8 -15 -40 -33 -73 -36 -63 -57 -128 -111 -333 -37 -140 -45
-186 -71 -380 -37 -271 -41 -464 -14 -640 19 -126 133 -422 190 -495 4 -6 24
-42 43 -81 37 -76 106 -172 158 -221 62 -59 193 -169 246 -207 29 -21 57 -46
62 -55 11 -21 -5 -41 -33 -41 -10 0 -15 -4 -12 -10 3 -5 16 -10 29 -10 96 0
372 -243 459 -405 84 -156 169 -364 206 -505 38 -144 65 -422 51 -523 -14 -96
-30 -146 -51 -161 -14 -9 -75 -11 -241 -9 -123 2 -226 7 -230 11 -13 13 11
134 34 177 41 78 86 101 178 90 49 -6 60 -4 60 7 0 19 -92 65 -145 73 -63 10
-75 15 -75 31 0 8 11 19 25 24 32 12 31 18 -2 31 l-28 11 25 13 25 14 -27 1
c-16 0 -28 -4 -28 -10 0 -13 -64 -24 -95 -16 -14 4 -23 11 -20 16 3 6 -4 10
-16 10 -18 0 -20 -3 -11 -12 19 -19 -6 -38 -49 -38 -21 0 -41 -4 -44 -10 -14
-22 -85 -8 -85 17 0 11 8 12 35 7 23 -4 35 -2 35 5 0 11 -12 15 -43 11 -10 -1
-25 4 -33 10 -11 10 -14 9 -14 -3 0 -8 -7 -17 -15 -21 -11 -4 -15 2 -15 20 0
16 -5 24 -12 21 -8 -2 -12 -17 -11 -34 2 -18 -4 -36 -12 -43 -21 -18 -27 -8
-15 24 5 15 10 44 10 65 0 20 5 42 11 48 8 8 12 97 12 290 1 253 -1 288 -21
383 -21 95 -87 308 -115 370 -22 48 -86 137 -117 164 -27 23 -60 35 -60 22 0
-19 54 -197 79 -261 74 -189 111 -387 111 -606 0 -233 -22 -359 -111 -639 -40
-125 -115 -255 -155 -270 -14 -6 -144 -10 -290 -10 -209 0 -264 3 -264 13 0
31 32 132 51 161 12 17 40 48 62 68 23 20 39 40 35 43 -12 13 -119 -49 -158
-91 -40 -44 -49 -59 -80 -144 l-16 -45 -129 -3 c-71 -1 -132 1 -137 6 -12 12
48 173 83 221 36 51 66 70 148 98 36 12 67 28 69 36 2 8 -11 38 -29 67 -39 63
-78 171 -122 338 -48 177 -56 227 -63 392 -5 122 -3 165 15 270 12 69 28 150
37 180 21 74 89 211 130 263 18 23 32 43 30 44 -6 6 -72 -26 -100 -48 -39 -31
-101 -129 -121 -192 -9 -29 -27 -72 -40 -97 -12 -25 -32 -85 -44 -135 -32
-133 -40 -144 -126 -185 -41 -19 -74 -38 -75 -42 0 -5 14 -8 30 -8 17 0 30 5
30 10 0 6 8 10 19 10 10 0 31 10 46 21 22 18 29 19 35 8 5 -7 7 -17 4 -21 -8
-13 15 -279 31 -353 19 -93 19 -105 -4 -105 -11 0 -22 -4 -26 -9 -3 -6 -26
-20 -51 -32 -25 -13 -50 -29 -57 -37 -10 -13 -7 -14 23 -8 19 4 45 8 57 9 12
1 25 5 29 9 4 5 22 8 40 8 28 0 32 -4 37 -32 4 -18 10 -58 16 -88 5 -30 14
-68 20 -84 15 -37 8 -43 -32 -28 -19 7 -46 12 -61 12 -25 0 -71 16 -118 41
-10 5 -22 9 -28 9 -19 0 -104 43 -170 85 -36 23 -97 63 -137 88 -86 55 -277
236 -337 321 -69 97 -138 236 -134 268 3 15 2 29 -2 30 -12 6 -80 126 -95 169
-20 56 -40 144 -55 247 -14 93 -8 392 10 500 21 126 80 340 120 437 4 11 16
43 26 70 9 28 25 64 34 80 9 17 22 50 30 75 8 25 30 74 48 110 120 228 144
271 164 303 74 115 192 313 232 390 l19 37 131 -1 c95 -1 121 -3 96 -10 -19
-4 -72 -7 -117 -5 -66 2 -83 0 -83 -11 0 -10 7 -12 19 -8 11 3 22 2 24 -2 3
-4 27 -7 54 -6 26 1 80 -1 120 -4 59 -4 73 -9 78 -24 4 -10 17 -22 31 -25 13
-3 24 -13 24 -22 0 -18 28 -52 44 -52 10 0 26 -12 82 -59 7 -6 15 -6 22 1 15
15 32 1 32 -28 0 -17 6 -24 19 -24 30 0 34 -33 11 -101 -11 -34 -20 -82 -20
-106 0 -36 -3 -43 -20 -43 -11 0 -20 -4 -20 -9 0 -13 27 -21 46 -14 12 4 15 2
12 -8 -6 -18 -38 -18 -60 0 -12 9 -18 10 -18 3 0 -16 -27 -15 -32 0 -5 15 -28
1 -28 -16 0 -13 13 -15 130 -28 18 -2 25 2 28 17 2 11 7 29 11 40 4 11 13 36
20 55 128 381 172 503 219 598 4 8 32 22 62 33 30 10 64 23 75 28 96 44 136
61 149 61 8 0 18 5 21 10 3 6 16 10 28 9 l22 0 -22 -11 c-13 -6 -23 -15 -23
-20 0 -11 48 -10 55 2 12 19 23 10 29 -25 4 -19 10 -35 14 -35 4 0 28 39 52
88 25 48 48 89 53 90 4 2 7 8 7 13 0 13 33 58 43 59 4 0 7 -6 7 -14z m820
-147 c0 -99 -3 -119 -15 -119 -12 0 -15 19 -15 109 0 112 5 145 21 135 5 -3 9
-59 9 -125z m-439 90 c16 -17 29 -35 29 -40 0 -5 -42 -9 -94 -9 -52 0 -101 -3
-110 -6 -11 -4 -17 4 -21 30 -4 19 -4 39 0 45 3 6 41 11 87 11 77 0 81 -1 109
-31z m-2780 -200 c-2 -188 -4 -220 -15 -208 -2 2 -7 100 -11 218 -7 201 -6
213 10 204 16 -9 17 -30 16 -214z m3149 85 c0 -69 -4 -114 -10 -114 -6 0 -10
47 -10 121 0 77 4 118 10 114 6 -4 10 -55 10 -121z m-720 87 c0 -5 9 -11 20
-14 28 -7 29 -67 1 -67 -47 0 -63 27 -45 74 7 17 24 22 24 7z m-2360 -60 c0
-27 3 -117 7 -200 6 -139 5 -153 -10 -150 -15 4 -18 29 -22 206 -5 179 -4 202
10 197 10 -4 15 -20 15 -53z m2920 -81 c0 -109 -2 -130 -15 -130 -13 0 -15 20
-15 123 0 68 3 127 7 130 19 19 23 -4 23 -123z m40 20 c0 -60 0 -113 1 -117 0
-4 -4 -9 -10 -11 -8 -3 -11 35 -11 117 0 74 4 121 10 121 6 0 10 -43 10 -110z
m-2895 -122 c-4 -106 -8 -194 -10 -196 -1 -1 -10 0 -19 4 -13 5 -16 22 -16
104 0 69 4 100 12 102 9 3 12 27 9 81 -3 77 1 97 21 97 7 0 8 -58 3 -192z m53
-39 c3 -149 0 -200 -8 -197 -8 2 -11 60 -11 198 0 107 1 196 1 198 0 1 3 2 8
2 4 0 8 -91 10 -201z m2302 101 c0 -73 -7 -89 -35 -89 -11 0 -31 -2 -45 -3
-20 -2 -26 2 -28 21 -5 33 6 71 20 68 6 -1 15 17 20 40 7 32 14 42 31 45 31 5
37 -8 37 -82z m-2259 -21 c-3 -97 -4 -104 -18 -96 -13 8 -4 199 10 194 7 -2
10 -34 8 -98z m-291 -38 c0 -66 -4 -122 -9 -125 -5 -4 -16 -3 -25 0 -13 5 -16
25 -16 118 0 62 3 116 7 119 3 4 15 7 25 7 16 0 18 -10 18 -119z m410 -22 c0
-105 9 -149 30 -149 6 0 10 50 10 120 0 102 2 120 16 120 13 0 15 -18 13 -124
-1 -118 8 -166 31 -166 6 0 10 55 10 136 0 104 3 135 13 131 9 -3 12 -36 12
-120 0 -65 1 -117 3 -117 2 0 12 5 23 10 17 10 19 22 19 111 0 76 3 100 13 96
8 -2 12 -31 12 -95 0 -93 8 -110 35 -77 7 8 21 15 31 15 17 0 19 8 19 63 0 68
4 79 26 70 9 -3 14 -20 14 -44 0 -35 3 -39 25 -39 14 0 25 4 25 8 0 7 74 52
86 52 2 0 -5 -15 -16 -32 -10 -18 -33 -61 -50 -96 -18 -35 -38 -66 -45 -69 -8
-2 -65 -6 -127 -6 -93 -2 -113 -5 -113 -17 0 -12 19 -16 98 -18 l97 -3 0 -30
c0 -17 -6 -32 -15 -35 -8 -4 -15 -15 -15 -25 0 -23 -36 -33 -95 -26 -37 4 -45
1 -50 -14 -5 -16 -16 -19 -61 -19 -30 0 -54 -4 -54 -10 0 -5 24 -10 54 -10 63
0 72 -13 61 -80 -6 -36 -5 -40 14 -40 26 0 27 -24 5 -69 -19 -38 -35 -36 -49
5 -5 16 -14 32 -18 35 -17 12 -78 133 -81 161 -1 4 -9 13 -19 21 -17 12 -19
31 -18 246 1 128 4 237 7 242 16 26 24 -13 24 -112z m4095 1 c3 -5 1 -10 -4
-10 -6 0 -11 5 -11 10 0 6 2 10 4 10 3 0 8 -4 11 -10z m-1977 -54 c4 -17 -6
-47 -29 -86 -5 -8 -16 -30 -25 -48 -10 -20 -23 -32 -33 -30 -22 5 -24 113 -1
113 8 0 16 8 18 18 10 48 63 73 70 33z m1998 -3 c-10 -10 -19 5 -10 18 6 11 8
11 12 0 2 -7 1 -15 -2 -18z m444 -143 c0 -38 -12 -52 -25 -30 -9 14 4 70 16
70 5 0 9 -18 9 -40z m-156 -6 c11 -29 -6 -86 -45 -148 -21 -34 -46 -74 -56
-91 -20 -34 -85 -70 -110 -61 -13 5 -14 15 -9 53 9 66 42 126 111 199 61 65
97 80 109 48z m116 -34 c0 -11 -2 -20 -4 -20 -2 0 -11 -3 -20 -6 -11 -4 -16 0
-16 13 0 23 8 33 27 33 7 0 13 -9 13 -20z m458 -56 c110 -22 212 -55 212 -68
0 -15 -59 -72 -125 -121 -27 -20 -84 -69 -125 -109 -167 -161 -315 -256 -398
-256 -40 0 -123 37 -130 57 -2 7 46 62 107 123 61 60 111 112 111 115 0 27
-156 -49 -250 -122 -176 -136 -254 -252 -325 -483 -33 -108 -52 -319 -60 -675
-7 -270 -19 -462 -35 -537 -5 -27 -15 -72 -21 -100 -14 -72 -74 -208 -127
-293 -117 -183 -450 -511 -484 -477 -17 17 -23 123 -8 132 10 6 10 12 -4 26
-11 11 -15 25 -12 40 5 18 3 22 -9 18 -11 -5 -15 1 -15 25 0 21 5 31 15 31 8
0 15 4 15 9 0 4 -11 6 -25 3 -20 -3 -25 0 -25 16 0 12 -4 24 -10 27 -5 3 -10
17 -10 29 0 13 -7 29 -15 36 -8 7 -15 17 -15 22 0 20 -114 235 -175 330 -60
94 -144 180 -301 311 -25 20 -44 37 -42 37 1 0 59 2 126 4 l124 3 103 52 c83
41 121 68 190 133 48 45 99 100 115 123 33 48 120 216 120 232 0 31 191 415
256 516 73 113 256 310 358 387 113 85 390 208 469 210 36 0 70 18 61 32 -5 7
-39 8 -105 4 -80 -6 -99 -4 -99 6 0 15 71 72 140 111 93 53 280 71 428 41z
m-2950 -82 c4 -51 -7 -53 -42 -7 l-27 35 23 9 c35 14 43 8 46 -37z m3194 -672
c-2 -496 -4 -570 -17 -570 -13 0 -15 72 -15 564 0 529 1 565 18 569 9 3 17 5
17 6 0 0 -1 -255 -3 -569z m-130 -41 l-2 -496 -38 -7 c-20 -3 -49 -6 -64 -6
l-28 0 0 449 0 448 67 56 c37 31 67 56 67 54 1 -1 0 -225 -2 -498z m-2512 431
c0 -5 -4 -10 -10 -10 -5 0 -10 5 -10 10 0 6 5 10 10 10 6 0 10 -4 10 -10z
m2273 -527 c-2 -243 -7 -379 -13 -383 -11 -7 -129 -4 -136 3 -9 9 -5 619 4
630 5 7 12 20 15 29 3 9 15 22 26 28 19 10 21 8 21 -25 0 -29 3 -36 18 -33 14
3 16 12 13 47 -2 37 1 47 20 62 13 10 26 19 29 19 3 0 4 -170 3 -377z m-1983
136 c0 -6 -4 -7 -10 -4 -5 3 -10 11 -10 16 0 6 5 7 10 4 6 -3 10 -11 10 -16z
m-75 -9 c3 -5 1 -10 -4 -10 -6 0 -11 5 -11 10 0 6 2 10 4 10 3 0 8 -4 11 -10z
m505 -582 c0 -10 -12 -44 -26 -74 -21 -45 -30 -55 -47 -52 -18 2 -23 11 -25
47 -5 64 4 88 35 99 37 12 63 4 63 -20z m-828 -115 c62 -20 149 -101 167 -156
14 -40 8 -87 -10 -87 -36 0 -329 187 -329 210 0 4 8 10 18 14 9 3 33 12 52 20
45 19 43 19 102 -1z m643 -133 c0 -20 -149 -103 -210 -117 -57 -13 -68 -7 -63
33 3 30 7 32 128 87 45 21 145 19 145 -3z m-3311 -197 c3 -10 8 -36 12 -58 20
-117 74 -297 113 -373 11 -22 21 -46 21 -52 0 -16 101 -232 118 -252 8 -10 11
-18 6 -18 -5 0 5 -11 21 -25 17 -13 24 -24 18 -25 -18 0 -16 -30 1 -30 8 0 17
6 19 13 3 6 6 3 6 -8 1 -12 -4 -26 -10 -32 -7 -7 -7 -17 -1 -29 6 -11 13 -27
16 -37 3 -10 10 -15 16 -12 6 4 10 -6 10 -23 0 -18 6 -32 15 -36 11 -4 14 -13
10 -29 -5 -17 -2 -26 9 -30 9 -4 16 -13 16 -22 0 -8 5 -15 10 -15 15 0 12 19
-5 36 -11 12 -12 20 -5 35 7 13 7 19 0 19 -5 0 -10 8 -10 18 0 11 -9 29 -20
42 -20 24 -27 50 -12 50 5 0 15 -11 22 -25 7 -14 17 -25 22 -25 5 0 6 -12 3
-27 -6 -27 -6 -27 10 -8 14 17 17 18 25 5 13 -21 12 -30 -2 -27 -16 3 -12 -56
4 -62 5 -2 24 -16 41 -30 18 -15 40 -30 50 -34 9 -4 17 -13 17 -20 0 -8 16
-28 35 -44 19 -17 35 -35 35 -42 0 -6 5 -11 11 -11 7 0 9 -16 4 -49 -7 -52 14
-117 30 -91 4 6 2 23 -6 36 -17 33 -5 40 21 14 18 -18 21 -29 15 -58 -4 -21
-13 -48 -20 -62 -7 -14 -27 -54 -45 -90 -51 -104 -61 -120 -71 -120 -5 0 -9
-7 -9 -15 0 -8 -10 -17 -22 -19 -74 -16 -211 -26 -346 -26 l-154 0 7 38 c13
77 30 114 67 157 21 24 48 47 58 50 24 8 27 25 5 25 -22 0 -87 -34 -124 -66
-42 -35 -84 -108 -91 -158 l-5 -41 -95 0 -95 0 3 35 c5 49 57 158 95 199 33
35 123 81 158 81 27 0 34 23 15 52 -36 54 -113 310 -135 448 -7 41 -18 98 -24
125 -16 71 -15 364 2 455 38 211 49 261 70 313 12 30 37 36 45 10z m528 -1045
c15 -18 28 -37 28 -41 0 -17 -35 -1 -45 21 -5 12 -13 22 -17 22 -5 0 -8 7 -8
15 0 23 12 18 42 -17z m95 -95 c-9 -9 -19 -14 -23 -11 -10 10 6 28 24 28 15 0
15 -1 -1 -17z m123 -162 c0 -11 -4 -23 -10 -26 -6 -4 -10 5 -10 19 0 14 5 26
10 26 6 0 10 -9 10 -19z m193 -26 c1 -5 -6 -11 -15 -13 -11 -2 -18 3 -18 13 0
17 30 18 33 0z m1673 6 c-7 -11 -76 -12 -76 -2 0 5 18 9 40 9 22 1 38 -3 36
-7z m268 -87 c23 -9 20 -18 -24 -83 -43 -63 -63 -111 -75 -179 -4 -23 -12 -42
-18 -43 -7 0 -64 -1 -127 -1 -133 0 -131 -2 -105 89 31 108 82 171 165 207 35
15 154 21 184 10z"/>
<path d="M4430 7334 c-42 -8 -139 -43 -190 -69 -55 -28 -198 -139 -207 -161
-3 -7 -10 -14 -17 -14 -6 0 -11 -12 -12 -27 -1 -16 -13 -61 -28 -101 -45 -126
-32 -292 30 -386 42 -63 123 -145 163 -164 52 -25 212 -24 265 2 44 21 112 81
157 137 l30 38 -55 -6 c-51 -5 -57 -4 -85 25 -51 51 -33 128 36 157 45 19 93
6 123 -32 11 -14 24 -23 28 -19 13 13 8 238 -7 280 -25 71 -79 151 -121 176
-79 49 -33 51 69 3 69 -32 139 -98 170 -160 13 -26 28 -56 33 -66 17 -34 30
-173 23 -247 -7 -79 -30 -143 -70 -196 -27 -35 -30 -44 -17 -44 21 0 94 89
126 154 92 181 76 370 -46 550 -34 49 -157 142 -206 155 -47 12 -159 21 -192
15z m-190 -243 c38 -37 46 -73 28 -119 -16 -42 -75 -82 -121 -82 -58 0 -107
46 -107 100 0 41 103 128 153 130 10 0 31 -13 47 -29z"/>
<path d="M6155 6710 c-3 -5 -1 -10 4 -10 6 0 11 5 11 10 0 6 -2 10 -4 10 -3 0
-8 -4 -11 -10z"/>
<path d="M2766 6278 c-15 -36 -7 -79 21 -110 22 -25 51 -20 76 14 24 32 18 68
-18 104 -34 34 -63 31 -79 -8z"/>
<path d="M3392 6270 c-58 -36 -86 -104 -62 -151 16 -30 47 -23 115 26 80 57
93 87 55 125 -25 25 -66 25 -108 0z"/>
<path d="M5221 5784 c-30 -30 -21 -44 10 -15 13 12 26 21 31 21 4 0 8 5 8 10
0 17 -24 9 -49 -16z"/>
<path d="M5140 5709 c0 -5 5 -7 10 -4 6 3 10 8 10 11 0 2 -4 4 -10 4 -5 0 -10
-5 -10 -11z"/>
<path d="M5100 5689 c0 -5 5 -7 10 -4 6 3 10 8 10 11 0 2 -4 4 -10 4 -5 0 -10
-5 -10 -11z"/>
<path d="M5028 5643 c7 -3 16 -2 19 1 4 3 -2 6 -13 5 -11 0 -14 -3 -6 -6z"/>
<path d="M4920 5599 c0 -5 5 -7 10 -4 6 3 10 8 10 11 0 2 -4 4 -10 4 -5 0 -10
-5 -10 -11z"/>
<path d="M6848 5113 c18 -2 45 -2 60 0 15 2 0 4 -33 4 -33 0 -45 -2 -27 -4z"/>
<path d="M6660 5090 c-12 -8 -8 -10 15 -11 44 -3 77 1 95 11 10 6 -3 9 -40 10
-30 0 -62 -5 -70 -10z"/>
<path d="M7268 5083 c6 -2 18 -2 25 0 6 3 1 5 -13 5 -14 0 -19 -2 -12 -5z"/>
<path d="M6525 5060 c-34 -14 -169 -50 -188 -50 -20 0 -165 -48 -182 -60 -5
-4 -37 -17 -70 -30 -90 -35 -148 -70 -199 -118 l-46 -44 29 -37 c17 -21 37
-43 45 -50 7 -6 45 -52 82 -102 38 -50 70 -85 73 -78 2 7 -1 15 -7 17 -17 5
-15 49 3 56 8 3 15 10 15 16 0 5 -7 10 -15 10 -8 0 -15 -7 -15 -15 0 -21 -17
-19 -30 4 -14 26 -13 31 5 25 9 -4 15 0 15 9 0 11 15 17 50 22 28 4 50 11 50
16 0 5 8 9 19 9 11 0 21 9 24 21 5 17 11 21 34 16 15 -3 40 1 56 9 25 13 27
19 21 50 -3 19 -2 40 4 47 16 19 25 77 13 77 -6 0 -11 6 -11 14 0 19 31 29 64
20 27 -6 37 9 14 20 -7 4 -3 4 9 2 12 -2 24 2 27 10 3 7 24 23 48 35 24 12 52
29 63 39 11 10 38 20 59 22 57 4 60 28 4 27 -23 0 -52 -4 -63 -9z m-355 -165
c0 -10 -78 -85 -88 -85 -12 0 -52 35 -52 45 0 3 7 5 15 5 8 0 15 -4 15 -10 0
-5 9 -10 20 -10 11 0 20 5 20 10 0 6 -4 10 -10 10 -5 0 -10 4 -10 8 0 5 14 7
30 4 17 -2 30 0 29 4 -3 18 1 24 16 24 8 0 15 -2 15 -5z m10 -45 c0 -5 -4 -10
-10 -10 -5 0 -10 5 -10 10 0 6 5 10 10 10 6 0 10 -4 10 -10z m-170 -220 c0 -5
-4 -10 -10 -10 -5 0 -10 5 -10 10 0 6 5 10 10 10 6 0 10 -4 10 -10z"/>
<path d="M6535 5010 c3 -5 15 -10 26 -10 10 0 19 5 19 10 0 6 -12 10 -26 10
-14 0 -23 -4 -19 -10z"/>
<path d="M6650 4719 c0 -5 5 -7 10 -4 6 3 10 8 10 11 0 2 -4 4 -10 4 -5 0 -10
-5 -10 -11z"/>
<path d="M6120 4585 c0 -8 5 -15 10 -15 6 0 10 7 10 15 0 8 -4 15 -10 15 -5 0
-10 -7 -10 -15z"/>
<path d="M6140 4500 c0 -5 5 -10 10 -10 6 0 10 5 10 10 0 6 -4 10 -10 10 -5 0
-10 -4 -10 -10z"/>
<path d="M6121 4448 c-1 -10 -5 -18 -11 -18 -5 0 -10 -5 -10 -12 0 -8 6 -7 16
4 9 9 14 22 11 30 -4 9 -6 7 -6 -4z"/>
<path d="M6396 4441 c-10 -11 -16 -28 -13 -38 4 -17 4 -17 11 2 4 11 12 28 17
38 12 22 6 22 -15 -2z"/>
<path d="M6134 4403 c-8 -14 -4 -31 22 -83 18 -36 35 -73 38 -82 3 -11 15 -18
29 -18 13 0 28 -5 34 -11 8 -8 13 -7 19 2 4 7 3 14 -4 17 -17 5 -15 22 3 22
21 0 19 18 -7 57 -26 38 -38 42 -38 13 0 -11 5 -20 10 -20 6 0 10 -7 10 -15 0
-8 -9 -15 -20 -15 -13 0 -20 7 -20 19 0 30 -11 51 -26 51 -15 0 -39 46 -35 68
3 17 -2 15 -15 -5z"/>
<path d="M6250 4390 c0 -11 5 -20 10 -20 6 0 10 9 10 20 0 11 -4 20 -10 20 -5
0 -10 -9 -10 -20z"/>
<path d="M6362 4360 c0 -14 2 -19 5 -12 2 6 2 18 0 25 -3 6 -5 1 -5 -13z"/>
<path d="M6328 4301 c-19 -41 -24 -96 -8 -86 6 3 10 21 10 40 0 18 5 35 11 37
6 2 9 13 7 25 -2 17 -6 15 -20 -16z"/>
<path d="M6292 4170 c0 -14 2 -19 5 -12 2 6 2 18 0 25 -3 6 -5 1 -5 -13z"/>
<path d="M5113 5251 c-9 -14 -9 -22 -2 -27 15 -9 21 1 17 26 -3 21 -3 21 -15
1z"/>
<path d="M5096 5183 c-4 -9 -2 -21 4 -27 7 -7 10 -2 10 17 0 31 -5 34 -14 10z"/>
<path d="M5071 5094 c0 -11 3 -14 6 -6 3 7 2 16 -1 19 -3 4 -6 -2 -5 -13z"/>
<path d="M5052 5020 c0 -14 2 -19 5 -12 2 6 2 18 0 25 -3 6 -5 1 -5 -13z"/>
<path d="M4400 4629 c0 -5 5 -7 10 -4 6 3 10 8 10 11 0 2 -4 4 -10 4 -5 0 -10
-5 -10 -11z"/>
<path d="M4020 3240 c0 -5 5 -10 10 -10 6 0 10 5 10 10 0 6 -4 10 -10 10 -5 0
-10 -4 -10 -10z"/>
<path d="M3968 3213 c7 -3 16 -2 19 1 4 3 -2 6 -13 5 -11 0 -14 -3 -6 -6z"/>
<path d="M3906 3185 c-25 -19 -9 -19 24 0 14 8 19 14 10 14 -8 0 -24 -6 -34
-14z"/>
<path d="M3840 3150 c0 -5 5 -10 10 -10 6 0 10 5 10 10 0 6 -4 10 -10 10 -5 0
-10 -4 -10 -10z"/>
<path d="M3961 2544 c-30 -13 -51 -27 -48 -31 10 -9 87 -11 81 -2 -3 5 4 9 15
9 12 0 21 5 21 11 0 5 3 8 8 6 12 -8 54 12 47 23 -11 17 -68 10 -124 -16z"/>
<path d="M3882 2475 c-17 -20 1 -20 43 0 l30 13 -30 1 c-16 0 -36 -6 -43 -14z"/>
<path d="M3800 2470 c-12 -8 -10 -10 8 -10 13 0 20 4 17 10 -7 12 -6 12 -25 0z"/>
<path d="M6292 2025 c0 -16 2 -22 5 -12 2 9 2 23 0 30 -3 6 -5 -1 -5 -18z"/>
<path d="M3930 2026 c0 -2 14 -9 31 -15 27 -9 30 -9 19 4 -11 13 -50 22 -50
11z"/>
<path d="M6310 1928 c0 -13 5 -30 10 -38 7 -11 10 -7 10 17 0 17 -4 35 -10 38
-6 3 -10 -4 -10 -17z"/>
<path d="M4108 1933 c7 -3 16 -2 19 1 4 3 -2 6 -13 5 -11 0 -14 -3 -6 -6z"/>
<path d="M5798 1838 c9 -9 15 -9 24 0 9 9 7 12 -12 12 -19 0 -21 -3 -12 -12z"/>
<path d="M6342 1780 c0 -14 2 -19 5 -12 2 6 2 18 0 25 -3 6 -5 1 -5 -13z"/>
<path d="M5302 1760 c0 -14 2 -19 5 -12 2 6 2 18 0 25 -3 6 -5 1 -5 -13z"/>
<path d="M5274 1669 c-3 -6 -1 -16 5 -22 8 -8 11 -5 11 11 0 24 -5 28 -16 11z"/>
<path d="M5230 1564 c0 -8 5 -12 10 -9 6 3 10 10 10 16 0 5 -4 9 -10 9 -5 0
-10 -7 -10 -16z"/>
<path d="M6338 1546 c-7 -39 -4 -55 8 -44 3 3 4 23 2 44 l-3 39 -7 -39z"/>
<path d="M5151 1454 c-7 -8 -11 -17 -9 -20 3 -2 13 5 23 16 10 11 14 20 9 20
-5 -1 -15 -8 -23 -16z"/>
<path d="M7132 3060 c0 -14 2 -19 5 -12 2 6 2 18 0 25 -3 6 -5 1 -5 -13z"/>
<path d="M6452 2553 c5 -25 28 -28 28 -4 0 12 -6 21 -16 21 -9 0 -14 -7 -12
-17z"/>
<path d="M6500 2506 c0 -9 5 -16 10 -16 6 0 10 4 10 9 0 6 -4 13 -10 16 -5 3
-10 -1 -10 -9z"/>
<path d="M6496 2375 c4 -8 8 -15 10 -15 2 0 4 7 4 15 0 8 -4 15 -10 15 -5 0
-7 -7 -4 -15z"/>
<path d="M6590 2221 c0 -6 5 -13 10 -16 6 -3 10 1 10 9 0 9 -4 16 -10 16 -5 0
-10 -4 -10 -9z"/>
<path d="M6565 2180 c3 -5 8 -10 11 -10 2 0 4 5 4 10 0 6 -5 10 -11 10 -5 0
-7 -4 -4 -10z"/>
<path d="M6602 2140 c7 -11 18 -20 25 -20 8 0 5 8 -7 20 -11 11 -22 20 -25 20
-3 0 0 -9 7 -20z"/>
<path d="M3520 1960 c0 -5 7 -10 16 -10 8 0 12 5 9 10 -3 6 -10 10 -16 10 -5
0 -9 -4 -9 -10z"/>
<path d="M3556 1926 c6 -16 34 -30 42 -21 6 5 -28 34 -40 35 -4 0 -5 -6 -2
-14z"/>
<path d="M3720 1661 c0 -11 5 -23 10 -26 6 -4 10 5 10 19 0 14 -4 26 -10 26
-5 0 -10 -9 -10 -19z"/>
<path d="M6080 8965 c0 -43 4 -75 10 -75 6 0 10 32 10 75 0 43 -4 75 -10 75
-6 0 -10 -32 -10 -75z"/>
<path d="M1660 8185 c0 -13 104 -15 880 -15 776 0 880 2 880 15 0 13 -104 15
-880 15 -776 0 -880 -2 -880 -15z"/>
<path d="M1660 5880 c0 -7 148 -10 425 -10 277 0 425 3 425 10 0 7 -148 10
-425 10 -277 0 -425 -3 -425 -10z"/>
<path d="M2865 4525 c-8 -14 -22 -36 -30 -50 -18 -29 -19 -35 -5 -35 6 0 10 5
10 10 0 6 11 23 25 38 14 15 25 35 25 44 0 25 -7 22 -25 -7z"/>
<path d="M2905 4540 c3 -5 8 -10 11 -10 2 0 4 5 4 10 0 6 -5 10 -11 10 -5 0
-7 -4 -4 -10z"/>
<path d="M2895 4480 c-3 -5 -1 -10 4 -10 6 0 11 5 11 10 0 6 -2 10 -4 10 -3 0
-8 -4 -11 -10z"/>
<path d="M7790 3980 c0 -110 -4 -200 -8 -200 -5 0 -18 9 -30 20 -19 18 -35 20
-147 20 l-125 0 0 -35 0 -35 158 0 c120 0 164 -4 186 -15 34 -18 44 -19 28 -3
-9 9 -12 74 -12 230 l0 218 -25 0 -25 0 0 -200z"/>
<path d="M7753 3343 c152 -2 402 -2 555 0 152 1 27 2 -278 2 -305 0 -430 -1
-277 -2z"/>
<path d="M1958 2973 c167 -2 437 -2 600 0 163 1 27 2 -303 2 -330 0 -464 -1
-297 -2z"/>
<path d="M7160 2375 c0 -13 86 -15 710 -15 624 0 710 2 710 15 0 13 -86 15
-710 15 -624 0 -710 -2 -710 -15z"/>
</g>
</svg>
